<?xml version="1.0" encoding="UTF-8"?>
<!DOCTYPE svg PUBLIC "-//W3C//DTD SVG 1.1//EN" "http://www.w3.org/Graphics/SVG/1.1/DTD/svg11.dtd">
<!-- Creator: CorelDRAW X8 -->
<svg xmlns="http://www.w3.org/2000/svg" xml:space="preserve" width="210mm" height="297mm" version="1.1" style="shape-rendering:geometricPrecision; text-rendering:geometricPrecision; image-rendering:optimizeQuality; fill-rule:evenodd; clip-rule:evenodd"
viewBox="0 0 21000 29700"
 xmlns:xlink="http://www.w3.org/1999/xlink">
 <defs>
  <style type="text/css">
   <![CDATA[
    .str0 {stroke:#2B2A29;stroke-width:20}
    .str3 {stroke:#57FF57;stroke-width:20}
    .str1 {stroke:#FF8B8B;stroke-width:20}
    .str2 {stroke:#FFB765;stroke-width:20}
    .str4 {stroke:#FFDB00;stroke-width:20}
    .fil9 {fill:none}
    .fil10 {fill:#2B2A29}
    .fil8 {fill:black}
    .fil7 {fill:#57FF57}
    .fil6 {fill:#B7FF65}
    .fil5 {fill:#DDFF00}
    .fil1 {fill:#FF8B8B}
    .fil2 {fill:#FFB765}
    .fil3 {fill:#FFDB00}
    .fil4 {fill:#F7F700}
    .fil0 {fill:url(#id0);fill-rule:nonzero}
   ]]>
  </style>
  <linearGradient id="id0" gradientUnits="userSpaceOnUse" x1="2311.9" y1="-8838.78" x2="6067.18" y2="-8838.78">
   <stop offset="0" style="stop-opacity:1; stop-color:#F7F700"/>
   <stop offset="1" style="stop-opacity:1; stop-color:#FF8B8B"/>
  </linearGradient>
 </defs>
 <g id="Слой_x0020_1">
  <metadata id="CorelCorpID_0Corel-Layer"/>
  <rect id="rect5203" class="fil0" x="2014" y="-9327" width="4084" height="1021"/>
  <path id="path3712-8" class="fil1" d="M6748 -11302l-1325 1507c428,376 675,919 675,1489l2009 0c-2,-1148 -498,-2239 -1360,-2996l1 0z"/>
  <path id="path3712-8-3" class="fil2" d="M4113 -12300l0 2009c483,1 948,177 1310,496l1325 -1507c-727,-641 -1664,-997 -2634,-998l-1 0z"/>
  <path id="path3712-8-2" class="fil3" d="M4113 -12300c-1058,0 -2074,423 -2822,1172l1420 1419c372,-372 877,-582 1403,-582l-1 -2009z"/>
  <path id="path3712-8-2-8" class="fil4" d="M1291 -11129c-748,749 -1171,1764 -1171,2823l2009 0c0,-526 210,-1031 582,-1403l-1420 -1420z"/>
  <path id="path3712-8-2-8-9" class="fil5" d="M120 -8306c2,1147 498,2239 1360,2995l1324 -1506c-428,-376 -675,-919 -675,-1489l-2009 0z"/>
  <path id="path3712-8-2-8-9-3" class="fil6" d="M2804 -6817l-1325 1506c727,641 1664,997 2634,998l0 -2009c-482,0 -947,-177 -1309,-495l0 0z"/>
  <path id="path3712-8-2-8-9-3-0" class="fil7" d="M5522 -6909c-372,375 -880,587 -1409,587l0 2009c1065,-1 2086,-427 2834,-1183l-1425 -1413z"/>
  <path class="fil8 str0" d="M7616 -8310l0 -2 0 0 0 0 0 0 0 -1 0 0 0 0 0 0 0 0 0 0 0 0 0 0 0 0 0 0 0 -1 0 0 0 0 0 0 0 0 0 4zm0 0c0,-280 -224,-504 -500,-504l-5449 0c235,-1137 1242,-1992 2449,-1992 691,0 1317,280 1767,732 89,89 215,146 354,146 276,0 500,-223 500,-500 0,-138 -56,-263 -146,-353 -634,-634 -1509,-1025 -2475,-1025 -1933,0 -3500,1567 -3500,3496 0,272 224,496 505,496l5446 0c-228,1145 -1239,2008 -2451,2008 -692,0 -1318,-281 -1768,-733 -88,-89 -214,-146 -354,-146 -276,0 -500,224 -500,500 0,138 56,263 147,354 633,633 1508,1025 2475,1025 1933,0 3500,-1567 3500,-3504zm0 0l0 -4 0 0 0 0 0 0 0 0 0 1 0 0 0 0 0 0 0 0 0 0 0 0 0 0 0 0 0 0 0 1 0 0 0 0 0 0 0 2z"/>
  <path class="fil8 str0" d="M8107 -11289c0,-276 224,-500 500,-500 276,0 500,224 500,500l0 6000c0,276 -224,500 -500,500 -276,0 -500,-224 -500,-500l0 -6000z"/>
  <path class="fil8 str0" d="M11607 -4789c-1104,0 -2000,-896 -2000,-2000 0,-1105 896,-2000 2000,-2000 1105,0 2000,895 2000,2000 0,1104 -895,2000 -2000,2000zm0 -3000c553,0 1000,448 1000,1000 0,552 -447,1000 -1000,1000 -552,0 -1000,-448 -1000,-1000 0,-552 448,-1000 1000,-1000z"/>
  <circle class="fil9 str0" cx="11607" cy="-6789" r="1000"/>
  <path class="fil10 str0" d="M13667 -8289c0,-276 224,-500 500,-500 198,0 369,115 450,281l1050 2101 1051 -2101c81,-166 252,-281 449,-281 276,0 500,224 500,500 0,85 -21,165 -60,237l-1487 2975c-5,11 -10,21 -16,32 -66,120 -184,211 -324,243l0 0c-8,2 -16,3 -24,5l-1 0c-3,1 -7,1 -10,2l-3 0c-7,1 -15,2 -22,3l-4 0c-3,1 -6,1 -9,1l-2 0c-4,1 -8,1 -11,1l-3 0 -9 1 -3 0c-4,0 -8,0 -12,0 -4,0 -7,0 -11,0l-4 0 -9 -1 -2 0c-4,0 -8,0 -12,-1l-2 0c-3,0 -6,0 -9,-1l-3 0c-8,-1 -15,-2 -23,-3l-2 0c-4,-1 -7,-1 -11,-2l0 0c-9,-2 -17,-3 -25,-5l0 0c-140,-32 -257,-123 -323,-243 -6,-11 -12,-21 -17,-32l-1487 -2975c-38,-72 -60,-152 -60,-237z"/>
  <path class="fil8 str0" d="M19705 -4789c-1105,0 -2000,-896 -2000,-2000 0,-1105 895,-2000 2000,-2000 1105,0 2000,895 2000,2000 0,1104 -895,2000 -2000,2000zm0 -3000c552,0 1000,448 1000,1000 0,552 -448,1000 -1000,1000 -552,0 -1000,-448 -1000,-1000 0,-552 448,-1000 1000,-1000z"/>
  <circle class="fil1 str1" cx="11607" cy="-9789" r="500"/>
  <circle class="fil2 str2" cx="15667" cy="-9789" r="500"/>
  <circle class="fil7 str3" cx="19705" cy="-9789" r="500"/>
  <circle class="fil3 str4" cx="17686" cy="-9789" r="500"/>
 </g>
</svg>
